<mxfile host="app.diagrams.net" modified="2024-03-17T08:55:36.992Z" agent="Mozilla/5.0 (Windows NT 10.0; Win64; x64) AppleWebKit/537.36 (KHTML, like Gecko) Chrome/122.0.0.0 Safari/537.36 Edg/122.0.0.0" etag="IZVGzJgWR8lyNG_G7PUh" version="24.0.2" type="github">
  <diagram name="第 1 页" id="tW3CXmPOTFtlpqPluhd4">
    <mxGraphModel dx="1181" dy="662" grid="1" gridSize="10" guides="1" tooltips="1" connect="1" arrows="1" fold="1" page="1" pageScale="1" pageWidth="827" pageHeight="1169" math="0" shadow="0">
      <root>
        <mxCell id="0" />
        <mxCell id="1" parent="0" />
        <mxCell id="CNmatFPKbzWSkCiTwap3-4" value="" style="rounded=0;whiteSpace=wrap;html=1;fillColor=#fff2cc;strokeColor=#d6b656;" parent="1" vertex="1">
          <mxGeometry x="210" y="380" width="440" height="280" as="geometry" />
        </mxCell>
        <mxCell id="CNmatFPKbzWSkCiTwap3-1" value="" style="rounded=0;whiteSpace=wrap;html=1;glass=0;fillColor=#fff2cc;strokeColor=#d6b656;" parent="1" vertex="1">
          <mxGeometry x="220" y="250" width="460" height="90" as="geometry" />
        </mxCell>
        <mxCell id="CNmatFPKbzWSkCiTwap3-3" value="驱动板" style="rounded=0;whiteSpace=wrap;html=1;fillColor=#f5f5f5;strokeColor=#666666;fontColor=#333333;" parent="1" vertex="1">
          <mxGeometry x="220" y="320" width="90" height="20" as="geometry" />
        </mxCell>
        <mxCell id="CNmatFPKbzWSkCiTwap3-35" value="" style="rounded=0;whiteSpace=wrap;html=1;fillColor=#fff2cc;strokeColor=#d6b656;" parent="1" vertex="1">
          <mxGeometry x="230" y="380" width="140" height="280" as="geometry" />
        </mxCell>
        <mxCell id="CNmatFPKbzWSkCiTwap3-14" value="" style="edgeStyle=orthogonalEdgeStyle;rounded=0;orthogonalLoop=1;jettySize=auto;html=1;" parent="1" source="CNmatFPKbzWSkCiTwap3-5" target="CNmatFPKbzWSkCiTwap3-9" edge="1">
          <mxGeometry relative="1" as="geometry" />
        </mxCell>
        <mxCell id="CNmatFPKbzWSkCiTwap3-16" value="" style="edgeStyle=orthogonalEdgeStyle;rounded=0;orthogonalLoop=1;jettySize=auto;html=1;" parent="1" source="CNmatFPKbzWSkCiTwap3-5" target="CNmatFPKbzWSkCiTwap3-10" edge="1">
          <mxGeometry relative="1" as="geometry" />
        </mxCell>
        <mxCell id="CNmatFPKbzWSkCiTwap3-5" value="TC264D" style="rounded=0;whiteSpace=wrap;html=1;fillColor=#ffe6cc;strokeColor=#d79b00;" parent="1" vertex="1">
          <mxGeometry x="410" y="491.25" width="110" height="67.5" as="geometry" />
        </mxCell>
        <mxCell id="CNmatFPKbzWSkCiTwap3-6" value="TFT Display" style="rounded=0;whiteSpace=wrap;html=1;fillColor=#dae8fc;strokeColor=#6c8ebf;" parent="1" vertex="1">
          <mxGeometry x="555" y="500" width="80" height="50" as="geometry" />
        </mxCell>
        <mxCell id="CNmatFPKbzWSkCiTwap3-7" value="Bottom" style="rounded=0;whiteSpace=wrap;html=1;fillColor=#dae8fc;strokeColor=#6c8ebf;" parent="1" vertex="1">
          <mxGeometry x="555" y="576.25" width="80" height="50" as="geometry" />
        </mxCell>
        <mxCell id="CNmatFPKbzWSkCiTwap3-8" value="Encoder" style="rounded=0;whiteSpace=wrap;html=1;fillColor=#dae8fc;strokeColor=#6c8ebf;" parent="1" vertex="1">
          <mxGeometry x="555" y="421.25" width="80" height="50" as="geometry" />
        </mxCell>
        <mxCell id="CNmatFPKbzWSkCiTwap3-9" value="Motor PWM" style="rounded=0;whiteSpace=wrap;html=1;fillColor=#dae8fc;strokeColor=#6c8ebf;" parent="1" vertex="1">
          <mxGeometry x="418.75" y="421.25" width="92.5" height="40" as="geometry" />
        </mxCell>
        <mxCell id="CNmatFPKbzWSkCiTwap3-10" value="ServoMotor&lt;br style=&quot;border-color: var(--border-color);&quot;&gt;Driver" style="rounded=0;whiteSpace=wrap;html=1;fillColor=#dae8fc;strokeColor=#6c8ebf;" parent="1" vertex="1">
          <mxGeometry x="418.75" y="586.25" width="92.5" height="40" as="geometry" />
        </mxCell>
        <mxCell id="CNmatFPKbzWSkCiTwap3-17" value="" style="endArrow=classic;html=1;rounded=0;exitX=1;exitY=0.5;exitDx=0;exitDy=0;entryX=0;entryY=0.5;entryDx=0;entryDy=0;" parent="1" source="CNmatFPKbzWSkCiTwap3-5" target="CNmatFPKbzWSkCiTwap3-6" edge="1">
          <mxGeometry width="50" height="50" relative="1" as="geometry">
            <mxPoint x="195" y="671.25" as="sourcePoint" />
            <mxPoint x="245" y="621.25" as="targetPoint" />
          </mxGeometry>
        </mxCell>
        <mxCell id="CNmatFPKbzWSkCiTwap3-18" value="" style="endArrow=classic;html=1;rounded=0;exitX=1;exitY=0.25;exitDx=0;exitDy=0;entryX=0;entryY=0.5;entryDx=0;entryDy=0;" parent="1" source="CNmatFPKbzWSkCiTwap3-5" target="CNmatFPKbzWSkCiTwap3-8" edge="1">
          <mxGeometry width="50" height="50" relative="1" as="geometry">
            <mxPoint x="195" y="671.25" as="sourcePoint" />
            <mxPoint x="245" y="621.25" as="targetPoint" />
            <Array as="points">
              <mxPoint x="535" y="508.25" />
              <mxPoint x="535" y="446.25" />
            </Array>
          </mxGeometry>
        </mxCell>
        <mxCell id="CNmatFPKbzWSkCiTwap3-22" value="" style="endArrow=classic;startArrow=classic;html=1;rounded=0;entryX=0;entryY=0.5;entryDx=0;entryDy=0;exitX=0.997;exitY=0.738;exitDx=0;exitDy=0;exitPerimeter=0;" parent="1" source="CNmatFPKbzWSkCiTwap3-5" target="CNmatFPKbzWSkCiTwap3-7" edge="1">
          <mxGeometry width="50" height="50" relative="1" as="geometry">
            <mxPoint x="520" y="540" as="sourcePoint" />
            <mxPoint x="245" y="621.25" as="targetPoint" />
            <Array as="points">
              <mxPoint x="535" y="541.25" />
              <mxPoint x="535" y="601.25" />
            </Array>
          </mxGeometry>
        </mxCell>
        <mxCell id="CNmatFPKbzWSkCiTwap3-23" value="Undervoltage Alarm" style="rounded=0;whiteSpace=wrap;html=1;fillColor=#f8cecc;strokeColor=#b85450;" parent="1" vertex="1">
          <mxGeometry x="250" y="620" width="100" height="30" as="geometry" />
        </mxCell>
        <mxCell id="CNmatFPKbzWSkCiTwap3-25" value="Batter(11.5V)" style="rounded=0;whiteSpace=wrap;html=1;fillColor=#f8cecc;strokeColor=#b85450;" parent="1" vertex="1">
          <mxGeometry x="250" y="570" width="100" height="30" as="geometry" />
        </mxCell>
        <mxCell id="CNmatFPKbzWSkCiTwap3-42" value="" style="edgeStyle=orthogonalEdgeStyle;rounded=0;orthogonalLoop=1;jettySize=auto;html=1;entryX=0.5;entryY=1;entryDx=0;entryDy=0;" parent="1" source="CNmatFPKbzWSkCiTwap3-26" target="CNmatFPKbzWSkCiTwap3-27" edge="1">
          <mxGeometry relative="1" as="geometry">
            <Array as="points">
              <mxPoint x="300" y="461" />
            </Array>
          </mxGeometry>
        </mxCell>
        <mxCell id="CNmatFPKbzWSkCiTwap3-26" value="Buck降压5V" style="rounded=0;whiteSpace=wrap;html=1;fillColor=#f8cecc;strokeColor=#b85450;" parent="1" vertex="1">
          <mxGeometry x="250" y="518.75" width="100" height="30" as="geometry" />
        </mxCell>
        <mxCell id="CNmatFPKbzWSkCiTwap3-28" value="" style="edgeStyle=orthogonalEdgeStyle;rounded=0;orthogonalLoop=1;jettySize=auto;html=1;entryX=0;entryY=0.5;entryDx=0;entryDy=0;" parent="1" source="CNmatFPKbzWSkCiTwap3-27" target="CNmatFPKbzWSkCiTwap3-5" edge="1">
          <mxGeometry relative="1" as="geometry" />
        </mxCell>
        <mxCell id="CNmatFPKbzWSkCiTwap3-27" value="LDO&lt;br&gt;降压3.3V" style="rounded=0;whiteSpace=wrap;html=1;direction=south;fillColor=#f8cecc;strokeColor=#b85450;" parent="1" vertex="1">
          <mxGeometry x="320" y="431.25" width="50" height="58.75" as="geometry" />
        </mxCell>
        <mxCell id="CNmatFPKbzWSkCiTwap3-30" value="" style="endArrow=classic;html=1;rounded=0;exitX=0.5;exitY=0;exitDx=0;exitDy=0;entryX=0.5;entryY=1;entryDx=0;entryDy=0;" parent="1" source="CNmatFPKbzWSkCiTwap3-25" target="CNmatFPKbzWSkCiTwap3-26" edge="1">
          <mxGeometry width="50" height="50" relative="1" as="geometry">
            <mxPoint x="220" y="540" as="sourcePoint" />
            <mxPoint x="270" y="490" as="targetPoint" />
          </mxGeometry>
        </mxCell>
        <mxCell id="CNmatFPKbzWSkCiTwap3-33" value="" style="endArrow=classic;html=1;rounded=0;exitX=0.5;exitY=1;exitDx=0;exitDy=0;entryX=0.5;entryY=0;entryDx=0;entryDy=0;" parent="1" target="CNmatFPKbzWSkCiTwap3-23" edge="1">
          <mxGeometry width="50" height="50" relative="1" as="geometry">
            <mxPoint x="300" y="600" as="sourcePoint" />
            <mxPoint x="270" y="490" as="targetPoint" />
          </mxGeometry>
        </mxCell>
        <mxCell id="CNmatFPKbzWSkCiTwap3-34" value="主控板" style="rounded=0;whiteSpace=wrap;html=1;fillColor=#f5f5f5;fontColor=#333333;strokeColor=#666666;" parent="1" vertex="1">
          <mxGeometry x="560" y="380" width="90" height="20" as="geometry" />
        </mxCell>
        <mxCell id="CNmatFPKbzWSkCiTwap3-40" value="" style="edgeStyle=orthogonalEdgeStyle;rounded=0;orthogonalLoop=1;jettySize=auto;html=1;" parent="1" source="CNmatFPKbzWSkCiTwap3-38" target="CNmatFPKbzWSkCiTwap3-3" edge="1">
          <mxGeometry relative="1" as="geometry">
            <Array as="points">
              <mxPoint x="295" y="350" />
              <mxPoint x="295" y="350" />
            </Array>
          </mxGeometry>
        </mxCell>
        <mxCell id="CNmatFPKbzWSkCiTwap3-38" value="电源管理模块" style="rounded=0;whiteSpace=wrap;html=1;fillColor=#f5f5f5;fontColor=#333333;strokeColor=#666666;" parent="1" vertex="1">
          <mxGeometry x="230" y="380" width="140" height="20" as="geometry" />
        </mxCell>
        <mxCell id="CNmatFPKbzWSkCiTwap3-47" value="" style="edgeStyle=orthogonalEdgeStyle;rounded=0;orthogonalLoop=1;jettySize=auto;html=1;entryX=0.704;entryY=-0.01;entryDx=0;entryDy=0;entryPerimeter=0;" parent="1" source="CNmatFPKbzWSkCiTwap3-43" target="CNmatFPKbzWSkCiTwap3-46" edge="1">
          <mxGeometry relative="1" as="geometry" />
        </mxCell>
        <mxCell id="CNmatFPKbzWSkCiTwap3-43" value="Boost&lt;br&gt;升压12V" style="rounded=0;whiteSpace=wrap;html=1;direction=south;fillColor=#f8cecc;strokeColor=#b85450;" parent="1" vertex="1">
          <mxGeometry x="230" y="431.25" width="50" height="58.75" as="geometry" />
        </mxCell>
        <mxCell id="CNmatFPKbzWSkCiTwap3-45" value="" style="endArrow=classic;html=1;rounded=0;" parent="1" edge="1">
          <mxGeometry width="50" height="50" relative="1" as="geometry">
            <mxPoint x="320" y="460.57" as="sourcePoint" />
            <mxPoint x="280" y="460.57" as="targetPoint" />
          </mxGeometry>
        </mxCell>
        <mxCell id="CNmatFPKbzWSkCiTwap3-46" value="EgdeBoard FZ3B" style="whiteSpace=wrap;html=1;rounded=0;fillColor=#ffe6cc;strokeColor=#d79b00;" parent="1" vertex="1">
          <mxGeometry x="50" y="501.25" width="110" height="40" as="geometry" />
        </mxCell>
        <mxCell id="CNmatFPKbzWSkCiTwap3-49" value="" style="endArrow=classic;startArrow=classic;html=1;rounded=0;exitX=0;exitY=0.5;exitDx=0;exitDy=0;entryX=1;entryY=0.5;entryDx=0;entryDy=0;dashed=1;" parent="1" source="CNmatFPKbzWSkCiTwap3-4" target="CNmatFPKbzWSkCiTwap3-46" edge="1">
          <mxGeometry width="50" height="50" relative="1" as="geometry">
            <mxPoint x="490" y="560" as="sourcePoint" />
            <mxPoint x="540" y="510" as="targetPoint" />
          </mxGeometry>
        </mxCell>
        <mxCell id="CNmatFPKbzWSkCiTwap3-50" value="无线串口" style="text;html=1;align=center;verticalAlign=middle;resizable=0;points=[];autosize=1;strokeColor=none;fillColor=none;" parent="1" vertex="1">
          <mxGeometry x="150" y="488.75" width="70" height="30" as="geometry" />
        </mxCell>
        <mxCell id="CNmatFPKbzWSkCiTwap3-51" value="PC" style="whiteSpace=wrap;html=1;rounded=0;fillColor=#ffe6cc;strokeColor=#d79b00;direction=west;" parent="1" vertex="1">
          <mxGeometry x="50" y="400" width="90" height="40" as="geometry" />
        </mxCell>
        <mxCell id="CNmatFPKbzWSkCiTwap3-53" value="" style="endArrow=classic;startArrow=classic;html=1;rounded=0;entryX=0.5;entryY=0;entryDx=0;entryDy=0;dashed=1;" parent="1" target="CNmatFPKbzWSkCiTwap3-51" edge="1">
          <mxGeometry width="50" height="50" relative="1" as="geometry">
            <mxPoint x="95" y="500" as="sourcePoint" />
            <mxPoint x="565" y="471.25" as="targetPoint" />
          </mxGeometry>
        </mxCell>
        <mxCell id="CNmatFPKbzWSkCiTwap3-54" value="无线网卡" style="text;html=1;align=center;verticalAlign=middle;resizable=0;points=[];autosize=1;strokeColor=none;fillColor=none;" parent="1" vertex="1">
          <mxGeometry x="30" y="458.75" width="70" height="30" as="geometry" />
        </mxCell>
        <mxCell id="CNmatFPKbzWSkCiTwap3-63" value="" style="edgeStyle=orthogonalEdgeStyle;rounded=0;orthogonalLoop=1;jettySize=auto;html=1;" parent="1" source="CNmatFPKbzWSkCiTwap3-59" target="CNmatFPKbzWSkCiTwap3-60" edge="1">
          <mxGeometry relative="1" as="geometry" />
        </mxCell>
        <mxCell id="CNmatFPKbzWSkCiTwap3-59" value="缓冲电路" style="rounded=0;whiteSpace=wrap;html=1;fillColor=none;" parent="1" vertex="1">
          <mxGeometry x="570" y="275" width="95" height="30" as="geometry" />
        </mxCell>
        <mxCell id="CNmatFPKbzWSkCiTwap3-70" value="" style="edgeStyle=orthogonalEdgeStyle;rounded=0;orthogonalLoop=1;jettySize=auto;html=1;" parent="1" source="CNmatFPKbzWSkCiTwap3-60" target="CNmatFPKbzWSkCiTwap3-68" edge="1">
          <mxGeometry relative="1" as="geometry" />
        </mxCell>
        <mxCell id="CNmatFPKbzWSkCiTwap3-60" value="HIP4082" style="rounded=0;whiteSpace=wrap;html=1;direction=west;fillColor=none;" parent="1" vertex="1">
          <mxGeometry x="460" y="275" width="85" height="30" as="geometry" />
        </mxCell>
        <mxCell id="CNmatFPKbzWSkCiTwap3-65" value="" style="endArrow=classic;html=1;rounded=0;exitX=0.5;exitY=0;exitDx=0;exitDy=0;entryX=0.5;entryY=1;entryDx=0;entryDy=0;" parent="1" source="CNmatFPKbzWSkCiTwap3-9" target="CNmatFPKbzWSkCiTwap3-59" edge="1">
          <mxGeometry width="50" height="50" relative="1" as="geometry">
            <mxPoint x="550" y="590" as="sourcePoint" />
            <mxPoint x="600" y="540" as="targetPoint" />
            <Array as="points">
              <mxPoint x="465" y="360" />
              <mxPoint x="618" y="360" />
            </Array>
          </mxGeometry>
        </mxCell>
        <mxCell id="CNmatFPKbzWSkCiTwap3-66" value="Motor" style="whiteSpace=wrap;html=1;rounded=0;direction=west;fillColor=#ffe6cc;strokeColor=#d79b00;" parent="1" vertex="1">
          <mxGeometry x="230" y="267.19" width="80" height="45.63" as="geometry" />
        </mxCell>
        <mxCell id="CNmatFPKbzWSkCiTwap3-71" value="" style="edgeStyle=orthogonalEdgeStyle;rounded=0;orthogonalLoop=1;jettySize=auto;html=1;" parent="1" source="CNmatFPKbzWSkCiTwap3-68" target="CNmatFPKbzWSkCiTwap3-66" edge="1">
          <mxGeometry relative="1" as="geometry" />
        </mxCell>
        <mxCell id="CNmatFPKbzWSkCiTwap3-68" value="全桥电路" style="rounded=0;whiteSpace=wrap;html=1;direction=west;fillColor=none;" parent="1" vertex="1">
          <mxGeometry x="340" y="275" width="85" height="30" as="geometry" />
        </mxCell>
        <mxCell id="uDjpolRC2hDYAw5DKu9C-7" value="" style="endArrow=classic;html=1;rounded=0;exitX=0.5;exitY=0;exitDx=0;exitDy=0;entryX=0.269;entryY=0.981;entryDx=0;entryDy=0;entryPerimeter=0;" edge="1" parent="1" source="uDjpolRC2hDYAw5DKu9C-1">
          <mxGeometry width="50" height="50" relative="1" as="geometry">
            <mxPoint x="205" y="600.76" as="sourcePoint" />
            <mxPoint x="104.58999999999992" y="541.25" as="targetPoint" />
            <Array as="points">
              <mxPoint x="105" y="590.76" />
            </Array>
          </mxGeometry>
        </mxCell>
        <mxCell id="uDjpolRC2hDYAw5DKu9C-1" value="摄像头" style="rounded=0;whiteSpace=wrap;html=1;fillColor=#dae8fc;strokeColor=#6c8ebf;" vertex="1" parent="1">
          <mxGeometry x="65" y="585" width="80" height="30" as="geometry" />
        </mxCell>
      </root>
    </mxGraphModel>
  </diagram>
</mxfile>
